# xmcd
#
# Track frame offsets:
#	150
#	11712
#	22012
#	31977
#	44812
#	56712
#	69537
#	82615
#	95117
#	107562
#	117810
#	129277
#	141402
#	153385
#	164642
#	176335
#
# Disc length: 2512 seconds
#
# Revision: 4
# Processed by: cddbd v1.5.2PL0 Copyright (c) Steve Scherf et al.
# Submitted via: VUPlayer 2.49
#
DISCID=d809ce10
DTITLE=Kitty Wells - The Country Music Hall of Fame Series
DYEAR=1991
DGENRE=Country
TTITLE0=It Wasn't God Who Made Honky Tonk Angels
TTITLE1=I Heard the Jukebox Playing
TTITLE2=Icicles Hanging from You Heart
TTITLE3=My Cold, Cold Heart is Melted Now
TTITLE4=I Gave My Wedding Dress Away
TTITLE5=Release Me
TTITLE6=Making Believe
TTITLE7=I'd Rather Stay Home
TTITLE8=Searching =for Someone Like You=
TTITLE9=I Can't Stop Loving You
TTITLE10=Mommy for A Day
TTITLE11=Amigo's Guitar
TTITLE12=Heartbreak, U. S. A.
TTITLE13=Will Your Lawyer Talk To God
TTITLE14=Password
TTITLE15=A Woman Half My Age
EXTD=
EXTT0=
EXTT1=
EXTT2=
EXTT3=
EXTT4=
EXTT5=
EXTT6=
EXTT7=
EXTT8=
EXTT9=
EXTT10=
EXTT11=
EXTT12=
EXTT13=
EXTT14=Kitty Wells
EXTT15=Kitty Wells
PLAYORDER=
